<svg version="1.1" viewBox="0.0 0.0 500.0 500.0" 
xmlns="http://www.w3.org/2000/svg">
    
    <!-- Card -->
    <path fill="#eeeeee" stroke="#595959" stroke-width="1.0" 
                d="M84.43 163.63L404.06 163.63L437.8 197.37L437.8 366.08L84.43 366.08Z"/>
    
    <!-- Algorithm title -->
    <text x="203" y="205" font-family="sans-serif" font-size="16" fill="#595959">Algorithm</text>
    
    <!-- Horizontal lines -->
    <g stroke="#595959" stroke-width="3.0">
        <line x1="104.68" y1="223.32" x2="243" y2="223.32"/>
        <line x1="104.68" y1="236.09" x2="243" y2="236.09"/>
        <line x1="104.68" y1="248.86" x2="243" y2="248.86"/>
        <line x1="104.68" y1="261.63" x2="243" y2="261.63"/>
        <line x1="104.68" y1="274.40" x2="243" y2="274.40"/>
        <line x1="104.68" y1="287.17" x2="243" y2="287.17"/>
        <line x1="104.68" y1="299.94" x2="243" y2="299.94"/>
        <line x1="104.68" y1="312.72" x2="243" y2="312.72"/>
        <line x1="104.68" y1="325.49" x2="243" y2="325.49"/>
        <line x1="104.68" y1="338.26" x2="243" y2="338.26"/>
        <line x1="104.68" y1="351.03" x2="243" y2="351.03"/>
        
        <line x1="260.31" y1="223.32" x2="398.62" y2="223.32"/>
        <line x1="260.31" y1="236.09" x2="398.62" y2="236.09"/>
        <line x1="260.31" y1="248.86" x2="398.62" y2="248.86"/>
        <line x1="260.31" y1="261.63" x2="398.62" y2="261.63"/>
        <line x1="260.31" y1="274.40" x2="398.62" y2="274.40"/>
        <line x1="260.31" y1="287.17" x2="398.62" y2="287.17"/>
        <line x1="260.31" y1="299.94" x2="398.62" y2="299.94"/>
        <line x1="260.31" y1="312.72" x2="398.62" y2="312.72"/>
        <line x1="260.31" y1="325.49" x2="398.62" y2="325.49"/>
        <line x1="260.31" y1="338.26" x2="398.62" y2="338.26"/>
        <line x1="260.31" y1="351.03" x2="398.62" y2="351.03"/>
    </g>
</svg>