<svg version="1.1" viewBox="0.0 0.0 625.0 540.0" 
fill="none" stroke="none" stroke-linecap="square" 
stroke-miterlimit="10" 
 xmlns:xlink="http://www.w3.org/1999/xlink" 
 xmlns="http://www.w3.org/2000/svg">

<!-- <clipPath id="p.0">

<path d="m0 0l626.8714 0l0 543.7402l-626.8714 0l0 -543.7402z" clip-rule="nonzero"/>

</clipPath> -->
<defs>
<g clip-path="url(#p.0)" id="arrow">

<path fill="#000000" fill-opacity="0.0" d="m0 0l626.8714 0l0 543.7402l-626.8714 0z" fill-rule="evenodd"/>

<path fill="#a64d79" d="m332.96326 505.34595l0 -21.0l-79.44882 0l0 -42.0l79.44882 0l0 -21.0l42.0 42.0z" fill-rule="evenodd"/>

<path stroke="#595959" stroke-width="1.0" stroke-linejoin="round" stroke-linecap="butt" d="m332.96326 505.34595l0 -21.0l-79.44882 0l0 -42.0l79.44882 0l0 -21.0l42.0 42.0z" fill-rule="evenodd"/>

</g>

<g clip-path="url(#p.0)" id="person">
<path fill="#000000" fill-opacity="0.0" d="m0 0l626.8714 0l0 543.7402l-626.8714 0z" fill-rule="evenodd"/>
<path fill="#351c75" d="m67.81877 233.18509l0 0c0 -19.454544 14.232735 -35.225555 31.789703 -35.225555l0 0c8.431152 0 16.51699 3.711258 22.478714 10.317322c5.961731 6.606079 9.310989 15.565826 9.310989 24.908234l0 0c0 19.454529 -14.232735 35.225555 -31.789703 35.225555l0 0c-17.556969 0 -31.789703 -15.771027 -31.789703 -35.225555z" fill-rule="evenodd"/>
<path fill="#351c75" d="m81.71955 272.5304l41.883255 0l0 0c9.685051 0 18.973427 3.8473816 25.821785 10.69574c6.848358 6.848358 10.69574 16.13675 10.69574 25.821777l0 36.517548c0 5.187988E-4 -4.272461E-4 9.460449E-4 -9.613037E-4 9.460449E-4l-114.91734 -9.460449E-4l0 0c-5.302429E-4 0 -9.57489E-4 -4.272461E-4 -9.57489E-4 -9.765625E-4l9.57489E-4 -36.51657l0 0c0 -20.16806 16.34945 -36.517517 36.51752 -36.517517z" fill-rule="evenodd"/>
<path fill="#b4a7d6" d="m71.77788 208.17046l17.917183 -32.141907l55.482002 0l-17.917183 32.141907z" fill-rule="evenodd"/>
<path fill="#b4a7d6" d="m111.170135 197.95816l9.31945 0l0 32.141907l-9.31945 0z" fill-rule="evenodd"/>
</g>

<g id="chalkboard" >
<path fill="#434343" d="m15.270341 402.40106l221.07086 0l0 121.88977l-221.07086 0z" fill-rule="evenodd"/>
</g>
<g id="line1-chalkboard">
<path stroke="#f3f3f3" stroke-width="2.0" stroke-linejoin="round" stroke-linecap="butt" d="m38.096306 428.47327c3.233986 -6.8117676 13.894783 9.935059 13.894783 17.549927c0 1.4537354 -0.4709816 3.9012756 -1.8521919 3.9012756c-10.209084 0 -10.776875 -26.959076 -1.8521919 -32.17679c6.2143135 -3.6331482 16.277695 -6.2648926 21.305786 -0.97592163c3.635353 3.8240051 4.061249 10.651154 8.338203 13.651001c5.36586 3.7636108 12.205315 -4.5216064 18.52861 -5.850769c1.9396667 -0.40771484 -1.9374619 3.946167 -3.7066116 4.8771973c-7.9522324 4.1849365 -16.256836 8.123352 -25.012398 9.749695c-2.2805557 0.4236145 -4.6315956 2.4374084 -4.6315956 0c0 -3.2747192 6.9347267 -2.625946 12.042591 -5.850769c7.1302643 -4.5016174 15.439987 -12.999176 23.160202 -9.749695c2.8672562 1.2068481 2.5626678 7.013275 5.5588074 7.800232c13.879051 3.6454163 27.809494 -14.379272 41.686584 -10.725586c17.117935 4.506958 35.161026 3.8989258 52.80641 3.8989258" fill-rule="evenodd"/>
</g>

<g id="line2-chalkboard">
<path stroke="#f3f3f3" stroke-width="2.0" stroke-linejoin="round" stroke-linecap="butt" d="m189.09792 470.40164c-3.5926208 -8.821014 -15.618668 -17.2146 -24.08519 -13.65097c-7.1684113 3.0172424 -6.4487305 21.639923 -13.897018 19.50174c-7.8650665 -2.257843 -14.783829 -7.2393494 -22.232986 -10.725616c-2.1486359 -1.0055542 -5.010025 -6.0410767 -2.7794037 -6.8243103c7.393036 -2.5958557 -5.576172 23.069275 -12.969803 20.47528c-6.2694626 -2.1995544 -10.251884 -16.535522 -15.749207 -12.675049c-6.1269226 4.302582 -4.897545 17.617035 -12.042595 19.49939c-4.493271 1.1837158 -7.8423615 -12.221069 -11.117607 -8.773804c-3.103157 3.2661438 -6.538475 11.335236 -10.190399 8.773804c-4.4875526 -3.147583 -1.0910873 -15.600464 -6.4837875 -15.600464c-4.7240753 0 -11.275112 7.0614624 -13.897015 2.9253845" fill-rule="evenodd"/>
</g>

<g id="line3-chalkboard">
<path stroke="#f3f3f3" stroke-width="2.0" stroke-linejoin="round" stroke-linecap="butt" d="m51.066162 510.37933c11.062527 -4.2326355 23.591667 -0.8918152 35.202797 -2.9253845c4.360939 -0.7637634 7.7539825 -6.9782104 12.042587 -5.848419c3.415451 0.8998108 4.817398 6.824341 8.338211 6.824341c2.546318 0 -6.7941284 -4.5496826 -7.4109955 -1.9494934c-0.7951813 3.3518066 4.474846 8.368561 7.4109955 6.8243103c3.6330643 -1.9107666 -1.7804337 -10.763336 1.8521881 -12.675049c9.218582 -4.8513794 20.430656 -6.814789 30.571205 -4.8748474c6.2633667 1.1982117 10.25795 12.532867 7.4109955 18.525848c-1.7083282 3.5960693 -9.908768 0.88848877 -11.117615 -2.925415c-1.7398987 -5.489441 5.272766 -11.063019 10.190399 -13.65097c7.1011505 -3.73703 15.78923 -8.955475 23.160202 -5.8507385c4.6228333 1.9471741 4.649002 9.290375 7.4110107 13.65097c0.873291 1.3787231 0.48332214 -5.6155396 -0.9249878 -4.8748474c-2.226944 1.1712341 -1.490097 7.1643677 0.9249878 7.800232c3.3896484 0.89245605 5.6153107 -4.6468506 7.4132233 -7.800232c0.9534302 -1.6722717 1.8529358 -5.850769 0 -5.850769c-4.496155 0 -0.3170929 11.534637 3.7043762 13.651001c2.9362335 1.5451965 6.124069 -4.366089 6.486023 -7.800232c0.34718323 -3.2940369 -0.37438965 -12.093201 1.8521881 -9.749695c7.570099 7.967682 7.1029816 30.4823 17.601395 28.275513c10.871841 -2.2852783 2.4481812 -23.691895 7.4109955 -34.12628" fill-rule="evenodd"/>
</g>

<g id="glassboard" >
<path fill="#faffee" d="m15.270341 402.40106l221.07086 0l0 121.88977l-221.07086 0z" fill-rule="evenodd"/>
</g>

<g id="line1-glassboard">
<path stroke="#a64d79" stroke-width="2.0" stroke-linejoin="round" stroke-linecap="butt" d="m38.096306 428.47327c3.233986 -6.8117676 13.894783 9.935059 13.894783 17.549927c0 1.4537354 -0.4709816 3.9012756 -1.8521919 3.9012756c-10.209084 0 -10.776875 -26.959076 -1.8521919 -32.17679c6.2143135 -3.6331482 16.277695 -6.2648926 21.305786 -0.97592163c3.635353 3.8240051 4.061249 10.651154 8.338203 13.651001c5.36586 3.7636108 12.205315 -4.5216064 18.52861 -5.850769c1.9396667 -0.40771484 -1.9374619 3.946167 -3.7066116 4.8771973c-7.9522324 4.1849365 -16.256836 8.123352 -25.012398 9.749695c-2.2805557 0.4236145 -4.6315956 2.4374084 -4.6315956 0c0 -3.2747192 6.9347267 -2.625946 12.042591 -5.850769c7.1302643 -4.5016174 15.439987 -12.999176 23.160202 -9.749695c2.8672562 1.2068481 2.5626678 7.013275 5.5588074 7.800232c13.879051 3.6454163 27.809494 -14.379272 41.686584 -10.725586c17.117935 4.506958 35.161026 3.8989258 52.80641 3.8989258" fill-rule="evenodd"/>
</g>

<g id="line2-glassboard">
<path stroke="#a64d79" stroke-width="2.0" stroke-linejoin="round" stroke-linecap="butt" d="m189.09792 470.40164c-3.5926208 -8.821014 -15.618668 -17.2146 -24.08519 -13.65097c-7.1684113 3.0172424 -6.4487305 21.639923 -13.897018 19.50174c-7.8650665 -2.257843 -14.783829 -7.2393494 -22.232986 -10.725616c-2.1486359 -1.0055542 -5.010025 -6.0410767 -2.7794037 -6.8243103c7.393036 -2.5958557 -5.576172 23.069275 -12.969803 20.47528c-6.2694626 -2.1995544 -10.251884 -16.535522 -15.749207 -12.675049c-6.1269226 4.302582 -4.897545 17.617035 -12.042595 19.49939c-4.493271 1.1837158 -7.8423615 -12.221069 -11.117607 -8.773804c-3.103157 3.2661438 -6.538475 11.335236 -10.190399 8.773804c-4.4875526 -3.147583 -1.0910873 -15.600464 -6.4837875 -15.600464c-4.7240753 0 -11.275112 7.0614624 -13.897015 2.9253845" fill-rule="evenodd"/>
</g>

<g id="line3-glassboard">
<path stroke="#a64d79" stroke-width="2.0" stroke-linejoin="round" stroke-linecap="butt" d="m51.066162 510.37933c11.062527 -4.2326355 23.591667 -0.8918152 35.202797 -2.9253845c4.360939 -0.7637634 7.7539825 -6.9782104 12.042587 -5.848419c3.415451 0.8998108 4.817398 6.824341 8.338211 6.824341c2.546318 0 -6.7941284 -4.5496826 -7.4109955 -1.9494934c-0.7951813 3.3518066 4.474846 8.368561 7.4109955 6.8243103c3.6330643 -1.9107666 -1.7804337 -10.763336 1.8521881 -12.675049c9.218582 -4.8513794 20.430656 -6.814789 30.571205 -4.8748474c6.2633667 1.1982117 10.25795 12.532867 7.4109955 18.525848c-1.7083282 3.5960693 -9.908768 0.88848877 -11.117615 -2.925415c-1.7398987 -5.489441 5.272766 -11.063019 10.190399 -13.65097c7.1011505 -3.73703 15.78923 -8.955475 23.160202 -5.8507385c4.6228333 1.9471741 4.649002 9.290375 7.4110107 13.65097c0.873291 1.3787231 0.48332214 -5.6155396 -0.9249878 -4.8748474c-2.226944 1.1712341 -1.490097 7.1643677 0.9249878 7.800232c3.3896484 0.89245605 5.6153107 -4.6468506 7.4132233 -7.800232c0.9534302 -1.6722717 1.8529358 -5.850769 0 -5.850769c-4.496155 0 -0.3170929 11.534637 3.7043762 13.651001c2.9362335 1.5451965 6.124069 -4.366089 6.486023 -7.800232c0.34718323 -3.2940369 -0.37438965 -12.093201 1.8521881 -9.749695c7.570099 7.967682 7.1029816 30.4823 17.601395 28.275513c10.871841 -2.2852783 2.4481812 -23.691895 7.4109955 -34.12628" fill-rule="evenodd"/>
</g>


<g clip-path="url(#p.0)" id="world">
<path fill="#000000" fill-opacity="0.0" d="m0 0l626.8714 0l0 543.7402l-626.8714 0z" fill-rule="evenodd"/>
<path fill="#3c78d8" fill-opacity="0.5" d="m285.08875 158.10478l0 0c0 -77.94941 66.67047 -141.1399 148.91269 -141.1399l0 0c39.49408 0 77.370605 14.870054 105.29715 41.338913c27.926514 26.468864 43.61548 62.368347 43.61548 99.80097l0 0c0 77.9494 -66.67047 141.13988 -148.91263 141.13988l0 0c-82.24222 0 -148.91269 -63.190475 -148.91269 -141.13988z" fill-rule="evenodd"/>
<path fill="#6aa84f" fill-opacity="0.5" d="m347.36755 89.03903l0 0c-0.9889221 -9.458771 2.257904 -18.822388 8.362701 -24.117516c6.1047974 -5.295128 13.996948 -5.5931168 20.327515 -0.7675171l0 0c2.2424927 -5.4997253 6.346863 -9.296909 11.071686 -10.2429695c4.7247925 -0.946064 9.515076 1.0701103 12.9218445 5.4386673l0 0c1.9102783 -4.9864044 5.661194 -8.336632 9.921722 -8.861847c4.260498 -0.52521515 8.427612 1.8489151 11.022675 6.2799225l0 0c3.451233 -5.285576 8.94223 -7.5110245 14.097015 -5.713379c5.1548157 1.7976456 9.047516 7.2955093 9.993774 14.114635l0 0c4.228363 1.5011292 7.7504883 5.317192 9.656403 10.462242c1.9058838 5.1450424 2.008606 11.114365 0.2815857 16.36567l0 0c4.1636963 7.0530853 5.137665 16.451225 2.5585022 24.68721c-2.579193 8.235985 -8.324066 14.072456 -15.090759 15.331337c-0.047698975 7.729767 -3.3048096 14.82251 -8.51593 18.544373c-5.2111206 3.7218628 -11.5625 3.4916687 -16.606018 -0.6018677l0 0c-2.148285 9.257736 -8.194977 16.069489 -15.527679 17.49234c-7.3327026 1.4228363 -14.636902 -2.7983093 -18.756897 -10.839737l0 0c-5.050232 3.9636536 -11.110138 5.1054535 -16.812653 3.1678314c-5.7025146 -1.9376068 -10.567352 -6.7914276 -13.49704 -13.466507l0 0c-5.160736 0.78601074 -10.150421 -2.6940002 -12.492737 -8.712921c-2.3423157 -6.0189056 -1.5386353 -13.295441 2.012207 -18.218277l0 0c-4.603485 -3.5264816 -6.952484 -10.524193 -5.822052 -17.344109c1.1304626 -6.819908 5.484131 -11.916603 10.790802 -12.632347z" fill-rule="evenodd"/>
<path fill="#000000" fill-opacity="0.0" d="m342.29678 119.38005l0 0c2.1723938 1.6641617 4.6820374 2.4190598 7.1919556 2.1633453m3.287445 24.768448c1.0793457 -0.1643982 2.137329 -0.5125122 3.1466064 -1.0353851m27.16156 11.333633c-0.75912476 -1.4817047 -1.3947449 -3.0650482 -1.895935 -4.7230225m36.181824 -1.9298553l0 0c0.3916626 -1.6878204 0.64541626 -3.4249573 0.75704956 -5.182419m24.363953 -12.759445c0.05078125 -8.229523 -3.5405273 -15.764572 -9.231323 -19.368599m21.763458 -20.64907c-0.92163086 2.8023071 -2.3285522 5.2882004 -4.110504 7.262764m-5.8266296 -34.091415l0 0c0.15704346 1.1316376 0.22970581 2.280281 0.21704102 3.4300156m-24.307434 -11.830929l0 0c-0.8609009 1.3184891 -1.5701904 2.7918816 -2.1057434 4.3743057m-18.838837 -1.7929573l0 0c-0.45880127 1.1975708 -0.8013916 2.4648094 -1.0198975 3.772522m-22.973969 1.0318756l0 0c1.3395386 1.0210953 2.5787964 2.2500916 3.6905518 3.6599884m-32.3804 21.225182l0 0c0.1362915 1.3036652 0.35165405 2.5912628 0.64404297 3.850731" fill-rule="evenodd"/>
<path fill="#6aa84f" fill-opacity="0.5" d="m451.6969 258.00262l0 0c-8.183746 5.126648 -18.189514 6.5105286 -25.771545 3.5643616c-7.5820007 -2.9461365 -11.410553 -9.705627 -9.860992 -17.410126l0 0c-6.028076 0.51979065 -11.34198 -1.3540802 -14.334381 -5.0548096c-2.9923706 -3.7007294 -3.3117676 -8.793655 -0.86154175 -13.738266l0 0c-5.410095 0.5786133 -10.156921 -1.1879425 -12.556122 -4.6727753c-2.3992004 -3.4848328 -2.111206 -8.194763 0.7618103 -12.458466l0 0c-6.377472 -0.63256836 -10.882355 -4.42601 -11.565369 -9.738846c-0.68304443 -5.312851 2.5784607 -11.190872 8.37323 -15.090622l0 0c-0.53604126 -4.36998 1.3581238 -9.166351 5.193115 -13.149887c3.8349915 -3.983551 9.234619 -6.7634735 14.803772 -7.621567l0 0c4.5582275 -6.815613 12.693359 -11.901901 21.369537 -13.360733c8.676147 -1.4588318 16.589813 0.9289398 20.78778 6.2722626c7.0734863 -3.4419403 15.0121765 -3.7933807 20.756134 -0.91882324c5.743927 2.8745422 8.39624 8.526184 6.93454 14.77655l0 0c9.414124 -2.2957153 18.353607 -0.08383179 22.956238 5.680023c4.6026306 5.763855 4.0433044 14.046402 -1.4363098 21.269272l0 0c5.8920593 2.625061 9.664673 7.403763 10.466858 13.258133c0.80215454 5.85437 -1.4336853 12.29126 -6.2031555 17.858643l0 0c3.0428162 4.1536255 2.1165771 10.080475 -2.3189697 14.83905c-4.4355774 4.7585754 -11.436249 7.3358917 -17.527649 6.4528503l0 0c-1.1426697 5.610428 -6.4682007 10.8159485 -13.199554 12.902069c-6.7313538 2.0861511 -13.34317 0.58013916 -16.387665 -3.7326355z" fill-rule="evenodd"/>
<path fill="#000000" fill-opacity="0.0" d="m481.66266 248.75801l0 0c0.5392456 -2.647583 0.096954346 -5.179962 -1.267456 -7.2571106m21.115143 -14.034073c-0.6364136 -0.86872864 -1.4307861 -1.6359711 -2.362671 -2.281952m-1.9007263 -28.833313c-1.0096741 1.3308868 -2.1677551 2.59964 -3.4544678 3.784668m-18.066315 -30.734985l0 0c-1.7163086 0.41854858 -3.4154968 0.97976685 -5.0691833 1.6743011m-22.620453 -15.531479c-7.5308228 3.6644897 -12.786713 10.197327 -13.510101 16.79248m-28.646393 -9.7043c2.9719238 -0.457901 5.8739014 -0.34927368 8.478363 0.3173828m-28.476318 20.453644l0 0c0.9616394 -0.647171 1.9768372 -1.2283173 3.0314636 -1.7353821m0.16079712 26.564331l0 0c1.5908813 0.1578064 3.2546997 0.11332703 4.939728 -0.13201904m6.8541565 17.263702l0 0c1.2993164 -0.13896179 2.6098328 -0.41081238 3.9013672 -0.80929565m11.29483 19.602646l0 0c0.32788086 -1.6302795 0.890625 -3.266632 1.6758728 -4.8731537m33.956604 18.718521l0 0c1.1279297 -0.7065735 2.2055664 -1.4749756 3.2228088 -2.2980042" fill-rule="evenodd"/>
<path fill="#000000" fill-opacity="0.0" d="m365.82544 135.44115l39.24405 0l0 42.56357l-39.24405 0z" fill-rule="evenodd"/>
<path stroke="#d6d4d4" stroke-width="8.456692913385826" stroke-linejoin="round" stroke-linecap="butt" d="m365.82544 135.44115l39.24405 0l0 42.56357l-39.24405 0z" fill-rule="evenodd"/>
</g>

<g clip-path="url(#p.0)" id="approximation">
<path fill="#000000" fill-opacity="0.0" d="m0 0l626.8714 0l0 543.7402l-626.8714 0z" fill-rule="evenodd"/>
<path fill="#000000" fill-opacity="0.0" d="m204.17061 360.42734l161.25984 -179.37009" fill-rule="evenodd"/>
<path stroke="#b7b7b7" stroke-width="3.0" stroke-linejoin="round" stroke-linecap="butt" d="m211.04433 352.78165l154.38612 -171.7244" fill-rule="evenodd"/>
<path fill="#b7b7b7" stroke="#b7b7b7" stroke-width="3.0" stroke-linecap="butt" d="m211.04433 352.78165l-0.25331116 -4.7644653l-3.688263 9.148712l8.706039 -4.6375427z" fill-rule="evenodd"/>
<path fill="#3c78d8" d="m197.16011 232.30397l173.00786 0l0 134.51967l-173.00786 0z" fill-rule="evenodd"/>
<path stroke="#595959" stroke-width="8.0" stroke-linejoin="round" stroke-linecap="butt" d="m197.16011 232.30397l173.00786 0l0 134.51967l-173.00786 0z" fill-rule="evenodd"/>
<path fill="#000000" fill-opacity="0.0" d="m197.49081 234.49294l167.90552 -97.32283" fill-rule="evenodd"/>
<path stroke="#b7b7b7" stroke-width="3.0" stroke-linejoin="round" stroke-linecap="butt" d="m206.38585 229.33713l159.01048 -92.16702" fill-rule="evenodd"/>
<path fill="#b7b7b7" stroke="#b7b7b7" stroke-width="3.0" stroke-linecap="butt" d="m206.38586 229.33713l1.227005 -4.610733l-6.327667 7.567215l9.71138 -1.7294769z" fill-rule="evenodd"/>
<path fill="#000000" fill-opacity="0.0" d="m365.39633 229.55331l45.795258 -97.133865" fill-rule="evenodd"/>
<path stroke="#b7b7b7" stroke-width="3.0" stroke-linejoin="round" stroke-linecap="butt" d="m373.0724 213.27208l38.1192 -80.85263" fill-rule="evenodd"/>
<path fill="#b7b7b7" stroke="#b7b7b7" stroke-width="3.0" stroke-linecap="butt" d="m368.59033 211.15895l-1.3237305 14.427429l10.287811 -10.201172z" fill-rule="evenodd"/>
<path fill="#000000" fill-opacity="0.0" d="m373.03937 360.42734l34.33072 -179.3386" fill-rule="evenodd"/>
<path stroke="#b7b7b7" stroke-width="3.0" stroke-linejoin="round" stroke-linecap="butt" d="m374.9724 350.32944l32.397675 -169.24069" fill-rule="evenodd"/>
<path fill="#b7b7b7" stroke="#b7b7b7" stroke-width="3.0" stroke-linecap="butt" d="m374.9724 350.32944l-2.6792603 -3.9479065l1.5708008 9.738312l5.056366 -8.469696z" fill-rule="evenodd"/>
<path fill="#6aa84f" d="m344.7532 301.5086c-11.452637 10.530823 -28.830109 12.428986 -42.45926 4.637848c-13.62915 -7.791107 -20.152405 -23.352081 -15.938629 -38.020996c4.2137756 -14.668915 18.126526 -24.832 33.993774 -24.832z" fill-rule="evenodd"/>
<path stroke="#6aa84f" stroke-width="8.0" stroke-linejoin="round" stroke-linecap="butt" d="m344.7532 301.5086c-11.452637 10.530823 -28.830109 12.428986 -42.45926 4.637848c-13.62915 -7.791107 -20.152405 -23.352081 -15.938629 -38.020996c4.2137756 -14.668915 18.126526 -24.832 33.993774 -24.832z" fill-rule="evenodd"/>
</g>


<g clip-path="url(#p.0)" id="spoken-algorithm">
<path fill="#000000" fill-opacity="0.0" d="m0 0l626.8714 0l0 543.7402l-626.8714 0z" fill-rule="evenodd"/>
<path fill="#fff2cc" d="m392.1377 389.77765l197.18842 0l22.421143 22.421143l0 112.10303l-219.60956 0z" fill-rule="evenodd"/>

<text x="400" y="419" font-family="Arial" font-size="18" fill="#b45f06">Spoken Language</text>
<path stroke="#595959" stroke-width="0.9133858267716535" stroke-linejoin="round" stroke-linecap="butt" d="m392.1377 389.77765l197.18842 0l22.421143 22.421143l0 112.10303l-219.60956 0z" fill-rule="evenodd"/>
<path stroke="#595959" stroke-width="2.742782152230971" stroke-linejoin="round" stroke-linecap="butt" d="m404.72192 437.9302l85.94919 0" fill-rule="evenodd"/>
<path fill="#000000" fill-opacity="0.0" d="m404.72192 446.4169l85.94919 0" fill-rule="evenodd"/>
<path stroke="#595959" stroke-width="2.742782152230971" stroke-linejoin="round" stroke-linecap="butt" d="m404.72192 446.4169l85.94919 0" fill-rule="evenodd"/>
<path fill="#000000" fill-opacity="0.0" d="m404.72192 454.9036l85.94919 0" fill-rule="evenodd"/>
<path stroke="#595959" stroke-width="2.742782152230971" stroke-linejoin="round" stroke-linecap="butt" d="m404.72192 454.9036l85.94919 0" fill-rule="evenodd"/>
<path fill="#000000" fill-opacity="0.0" d="m404.72192 463.3903l85.94919 0" fill-rule="evenodd"/>
<path stroke="#595959" stroke-width="2.742782152230971" stroke-linejoin="round" stroke-linecap="butt" d="m404.72192 463.3903l85.94919 0" fill-rule="evenodd"/>
<path fill="#000000" fill-opacity="0.0" d="m404.72192 471.877l85.94919 0" fill-rule="evenodd"/>
<path stroke="#595959" stroke-width="2.742782152230971" stroke-linejoin="round" stroke-linecap="butt" d="m404.72192 471.877l85.94919 0" fill-rule="evenodd"/>
<path fill="#000000" fill-opacity="0.0" d="m404.72192 480.3637l85.94919 0" fill-rule="evenodd"/>
<path stroke="#595959" stroke-width="2.742782152230971" stroke-linejoin="round" stroke-linecap="butt" d="m404.72192 480.3637l85.94919 0" fill-rule="evenodd"/>
<path fill="#000000" fill-opacity="0.0" d="m404.72192 488.8504l85.94919 0" fill-rule="evenodd"/>
<path stroke="#595959" stroke-width="2.742782152230971" stroke-linejoin="round" stroke-linecap="butt" d="m404.72192 488.8504l85.94919 0" fill-rule="evenodd"/>
<path fill="#000000" fill-opacity="0.0" d="m404.72192 497.3371l85.94919 0" fill-rule="evenodd"/>
<path stroke="#595959" stroke-width="2.742782152230971" stroke-linejoin="round" stroke-linecap="butt" d="m404.72192 497.3371l85.94919 0" fill-rule="evenodd"/>
<path fill="#000000" fill-opacity="0.0" d="m404.72192 505.82382l85.94919 0" fill-rule="evenodd"/>
<path stroke="#595959" stroke-width="2.742782152230971" stroke-linejoin="round" stroke-linecap="butt" d="m404.72192 505.82382l85.94919 0" fill-rule="evenodd"/>
<path fill="#000000" fill-opacity="0.0" d="m404.72192 514.3105l85.94919 0" fill-rule="evenodd"/>
<path stroke="#595959" stroke-width="2.742782152230971" stroke-linejoin="round" stroke-linecap="butt" d="m404.72192 514.3105l85.94919 0" fill-rule="evenodd"/>
<path fill="#000000" fill-opacity="0.0" d="m501.44427 437.9302l85.94922 0" fill-rule="evenodd"/>
<path stroke="#595959" stroke-width="2.742782152230971" stroke-linejoin="round" stroke-linecap="butt" d="m501.44427 437.9302l85.94922 0" fill-rule="evenodd"/>
<path fill="#000000" fill-opacity="0.0" d="m501.44427 446.4169l85.94922 0" fill-rule="evenodd"/>
<path stroke="#595959" stroke-width="2.742782152230971" stroke-linejoin="round" stroke-linecap="butt" d="m501.44427 446.4169l85.94922 0" fill-rule="evenodd"/>
<path fill="#000000" fill-opacity="0.0" d="m501.44427 454.9036l85.94922 0" fill-rule="evenodd"/>
<path stroke="#595959" stroke-width="2.742782152230971" stroke-linejoin="round" stroke-linecap="butt" d="m501.44427 454.9036l85.94922 0" fill-rule="evenodd"/>
<path fill="#000000" fill-opacity="0.0" d="m501.44427 463.3903l85.94922 0" fill-rule="evenodd"/>
<path stroke="#595959" stroke-width="2.742782152230971" stroke-linejoin="round" stroke-linecap="butt" d="m501.44427 463.3903l85.94922 0" fill-rule="evenodd"/>
<path fill="#000000" fill-opacity="0.0" d="m501.44427 471.877l85.94922 0" fill-rule="evenodd"/>
<path stroke="#595959" stroke-width="2.742782152230971" stroke-linejoin="round" stroke-linecap="butt" d="m501.44427 471.877l85.94922 0" fill-rule="evenodd"/>
<path fill="#000000" fill-opacity="0.0" d="m501.44427 480.3637l85.94922 0" fill-rule="evenodd"/>
<path stroke="#595959" stroke-width="2.742782152230971" stroke-linejoin="round" stroke-linecap="butt" d="m501.44427 480.3637l85.94922 0" fill-rule="evenodd"/>
<path fill="#000000" fill-opacity="0.0" d="m501.44427 488.8504l85.94922 0" fill-rule="evenodd"/>
<path stroke="#595959" stroke-width="2.742782152230971" stroke-linejoin="round" stroke-linecap="butt" d="m501.44427 488.8504l85.94922 0" fill-rule="evenodd"/>
<path fill="#000000" fill-opacity="0.0" d="m501.44427 497.3371l85.94922 0" fill-rule="evenodd"/>
<path stroke="#595959" stroke-width="2.742782152230971" stroke-linejoin="round" stroke-linecap="butt" d="m501.44427 497.3371l85.94922 0" fill-rule="evenodd"/>
<path fill="#000000" fill-opacity="0.0" d="m501.44427 505.82382l85.94922 0" fill-rule="evenodd"/>
<path stroke="#595959" stroke-width="2.742782152230971" stroke-linejoin="round" stroke-linecap="butt" d="m501.44427 505.82382l85.94922 0" fill-rule="evenodd"/>
<path fill="#000000" fill-opacity="0.0" d="m501.44427 514.3105l85.94922 0" fill-rule="evenodd"/>
<path stroke="#595959" stroke-width="2.742782152230971" stroke-linejoin="round" stroke-linecap="butt" d="m501.44427 514.3105l85.94922 0" fill-rule="evenodd"/>
</g>




<g clip-path="url(#p.0)" id="programming-algorithm">
<path fill="#000000" fill-opacity="0.0" d="m0 0l626.8714 0l0 543.7402l-626.8714 0z" fill-rule="evenodd"/>
<path fill="#d9ead3" d="m392.1377 389.77765l197.18842 0l22.421143 22.421143l0 112.10303l-219.60956 0z" fill-rule="evenodd"/>

<text x="400" y="419" font-family="Arial" font-size="18" fill="#38761d">Programming Language</text>
<path stroke="#595959" stroke-width="0.9133858267716535" stroke-linejoin="round" stroke-linecap="butt" d="m392.1377 389.77765l197.18842 0l22.421143 22.421143l0 112.10303l-219.60956 0z" fill-rule="evenodd"/>
<path stroke="#595959" stroke-width="2.742782152230971" stroke-linejoin="round" stroke-linecap="butt" d="m404.72192 437.9302l85.94919 0" fill-rule="evenodd"/>
<path fill="#000000" fill-opacity="0.0" d="m404.72192 446.4169l85.94919 0" fill-rule="evenodd"/>
<path stroke="#595959" stroke-width="2.742782152230971" stroke-linejoin="round" stroke-linecap="butt" d="m404.72192 446.4169l85.94919 0" fill-rule="evenodd"/>
<path fill="#000000" fill-opacity="0.0" d="m404.72192 454.9036l85.94919 0" fill-rule="evenodd"/>
<path stroke="#595959" stroke-width="2.742782152230971" stroke-linejoin="round" stroke-linecap="butt" d="m404.72192 454.9036l85.94919 0" fill-rule="evenodd"/>
<path fill="#000000" fill-opacity="0.0" d="m404.72192 463.3903l85.94919 0" fill-rule="evenodd"/>
<path stroke="#595959" stroke-width="2.742782152230971" stroke-linejoin="round" stroke-linecap="butt" d="m404.72192 463.3903l85.94919 0" fill-rule="evenodd"/>
<path fill="#000000" fill-opacity="0.0" d="m404.72192 471.877l85.94919 0" fill-rule="evenodd"/>
<path stroke="#595959" stroke-width="2.742782152230971" stroke-linejoin="round" stroke-linecap="butt" d="m404.72192 471.877l85.94919 0" fill-rule="evenodd"/>
<path fill="#000000" fill-opacity="0.0" d="m404.72192 480.3637l85.94919 0" fill-rule="evenodd"/>
<path stroke="#595959" stroke-width="2.742782152230971" stroke-linejoin="round" stroke-linecap="butt" d="m404.72192 480.3637l85.94919 0" fill-rule="evenodd"/>
<path fill="#000000" fill-opacity="0.0" d="m404.72192 488.8504l85.94919 0" fill-rule="evenodd"/>
<path stroke="#595959" stroke-width="2.742782152230971" stroke-linejoin="round" stroke-linecap="butt" d="m404.72192 488.8504l85.94919 0" fill-rule="evenodd"/>
<path fill="#000000" fill-opacity="0.0" d="m404.72192 497.3371l85.94919 0" fill-rule="evenodd"/>
<path stroke="#595959" stroke-width="2.742782152230971" stroke-linejoin="round" stroke-linecap="butt" d="m404.72192 497.3371l85.94919 0" fill-rule="evenodd"/>
<path fill="#000000" fill-opacity="0.0" d="m404.72192 505.82382l85.94919 0" fill-rule="evenodd"/>
<path stroke="#595959" stroke-width="2.742782152230971" stroke-linejoin="round" stroke-linecap="butt" d="m404.72192 505.82382l85.94919 0" fill-rule="evenodd"/>
<path fill="#000000" fill-opacity="0.0" d="m404.72192 514.3105l85.94919 0" fill-rule="evenodd"/>
<path stroke="#595959" stroke-width="2.742782152230971" stroke-linejoin="round" stroke-linecap="butt" d="m404.72192 514.3105l85.94919 0" fill-rule="evenodd"/>
<path fill="#000000" fill-opacity="0.0" d="m501.44427 437.9302l85.94922 0" fill-rule="evenodd"/>
<path stroke="#595959" stroke-width="2.742782152230971" stroke-linejoin="round" stroke-linecap="butt" d="m501.44427 437.9302l85.94922 0" fill-rule="evenodd"/>
<path fill="#000000" fill-opacity="0.0" d="m501.44427 446.4169l85.94922 0" fill-rule="evenodd"/>
<path stroke="#595959" stroke-width="2.742782152230971" stroke-linejoin="round" stroke-linecap="butt" d="m501.44427 446.4169l85.94922 0" fill-rule="evenodd"/>
<path fill="#000000" fill-opacity="0.0" d="m501.44427 454.9036l85.94922 0" fill-rule="evenodd"/>
<path stroke="#595959" stroke-width="2.742782152230971" stroke-linejoin="round" stroke-linecap="butt" d="m501.44427 454.9036l85.94922 0" fill-rule="evenodd"/>
<path fill="#000000" fill-opacity="0.0" d="m501.44427 463.3903l85.94922 0" fill-rule="evenodd"/>
<path stroke="#595959" stroke-width="2.742782152230971" stroke-linejoin="round" stroke-linecap="butt" d="m501.44427 463.3903l85.94922 0" fill-rule="evenodd"/>
<path fill="#000000" fill-opacity="0.0" d="m501.44427 471.877l85.94922 0" fill-rule="evenodd"/>
<path stroke="#595959" stroke-width="2.742782152230971" stroke-linejoin="round" stroke-linecap="butt" d="m501.44427 471.877l85.94922 0" fill-rule="evenodd"/>
<path fill="#000000" fill-opacity="0.0" d="m501.44427 480.3637l85.94922 0" fill-rule="evenodd"/>
<path stroke="#595959" stroke-width="2.742782152230971" stroke-linejoin="round" stroke-linecap="butt" d="m501.44427 480.3637l85.94922 0" fill-rule="evenodd"/>
<path fill="#000000" fill-opacity="0.0" d="m501.44427 488.8504l85.94922 0" fill-rule="evenodd"/>
<path stroke="#595959" stroke-width="2.742782152230971" stroke-linejoin="round" stroke-linecap="butt" d="m501.44427 488.8504l85.94922 0" fill-rule="evenodd"/>
<path fill="#000000" fill-opacity="0.0" d="m501.44427 497.3371l85.94922 0" fill-rule="evenodd"/>
<path stroke="#595959" stroke-width="2.742782152230971" stroke-linejoin="round" stroke-linecap="butt" d="m501.44427 497.3371l85.94922 0" fill-rule="evenodd"/>
<path fill="#000000" fill-opacity="0.0" d="m501.44427 505.82382l85.94922 0" fill-rule="evenodd"/>
<path stroke="#595959" stroke-width="2.742782152230971" stroke-linejoin="round" stroke-linecap="butt" d="m501.44427 505.82382l85.94922 0" fill-rule="evenodd"/>
<path fill="#000000" fill-opacity="0.0" d="m501.44427 514.3105l85.94922 0" fill-rule="evenodd"/>
<path stroke="#595959" stroke-width="2.742782152230971" stroke-linejoin="round" stroke-linecap="butt" d="m501.44427 514.3105l85.94922 0" fill-rule="evenodd"/>
</g>





<g clip-path="url(#p.0)" id="thought">
<path fill="#000000" fill-opacity="0.0" d="m0 0l626.8714 0l0 543.7402l-626.8714 0z" fill-rule="evenodd"/>
<path fill="#eeeeee" d="m28.310497 56.42675c-1.1646595 -6.394497 2.659029 -12.724678 9.848541 -16.30442c7.189514 -3.5797462 16.483974 -3.7812538 23.939423 -0.51901245l0 0c2.6408043 -3.7182922 7.474415 -6.2855263 13.038692 -6.925129c5.56427 -0.6396065 11.205627 0.7235451 15.217598 3.6771088l0 0c2.2496948 -3.3711815 6.667076 -5.6361923 11.684616 -5.99127c5.0175323 -0.35507774 9.925087 1.2500286 12.981186 4.2457333l0 0c4.0644913 -3.5732365 10.531158 -5.0777016 16.601852 -3.8624096c6.070694 1.215292 10.65506 4.932066 11.76947 9.542067l0 0c4.9794617 1.0148315 9.127243 3.5946388 11.371704 7.0728836c2.244461 3.4782448 2.3654327 7.5137253 0.33164978 11.063812c4.9036865 4.7681465 6.0508575 11.121708 3.0133667 16.68961c-3.0374756 5.5679092 -9.803238 9.513626 -17.77237 10.364662c-0.056167603 5.225853 -3.891983 10.021027 -10.028915 12.537216c-6.1369476 2.5161896 -13.616692 2.3604736 -19.55616 -0.40712738c-2.5299454 6.2588425 -9.651024 10.864044 -18.286621 11.825966c-8.635597 0.9619293 -17.237602 -1.8918762 -22.089577 -7.3284454l0 0c-5.9474792 2.679657 -13.083988 3.4515915 -19.799648 2.1416702c-6.715664 -1.3099289 -12.444775 -4.5913773 -15.894939 -9.104103l0 0c-6.0775356 0.53139496 -11.953686 -1.8212433 -14.712162 -5.8903275c-2.7584763 -4.0690765 -1.812067 -8.988396 2.3695297 -12.316521l0 0c-5.421612 -2.3841171 -8.188054 -7.1150208 -6.8567324 -11.725723c1.3313208 -4.6107025 6.458722 -8.0563965 12.708457 -8.540287z" fill-rule="evenodd"/>
<path fill="#eeeeee" d="m109.116714 141.33026c0 1.219574 -0.9886551 2.2082367 -2.2082214 2.2082367c-1.2195663 0 -2.2082214 -0.9886627 -2.2082214 -2.2082367c0 -1.2195587 0.9886551 -2.2082214 2.2082214 -2.2082214c1.2195663 0 2.2082214 0.9886627 2.2082214 2.2082214z" fill-rule="evenodd"/>
<path fill="#eeeeee" d="m108.8235 132.01802c0 2.439148 -1.9773102 4.416458 -4.4164505 4.416458c-2.4391403 0 -4.4164505 -1.9773102 -4.4164505 -4.416458c0 -2.4391327 1.9773102 -4.416443 4.4164505 -4.416443c2.4391403 0 4.4164505 1.9773102 4.4164505 4.416443z" fill-rule="evenodd"/>
<path fill="#eeeeee" d="m107.38455 118.44054c0 3.6587067 -2.9659653 6.624672 -6.624672 6.624672c-3.658699 0 -6.624672 -2.9659653 -6.624672 -6.624672c0 -3.6587067 2.965973 -6.624672 6.624672 -6.624672c3.6587067 0 6.624672 2.9659653 6.624672 6.624672z" fill-rule="evenodd"/>
<path fill="#000000" fill-opacity="0.0" d="m30.962467 78.09274l0 0c-2.9559288 0.17287445 -5.9115353 -0.33747864 -8.469988 -1.4625473m15.94306 17.46775c-1.1886368 0.353508 -2.4345894 0.5888672 -3.7057266 0.7000046m35.636787 6.9905777l0 0c-0.8940048 -1.0017166 -1.6425095 -2.0721436 -2.2327652 -3.1930313m43.523582 -4.7691574c-0.1314621 1.1881256 -0.43030548 2.3625183 -0.8915405 3.5035706m18.618813 -25.151016l0 0c6.7015686 2.4365997 10.93071 7.530678 10.870911 13.094254m14.771225 -27.040512c-1.0852966 1.894474 -2.742157 3.5750427 -4.840637 4.909935m-6.7751465 -23.128445l0 0c0.18493652 0.765049 0.27052307 1.5415916 0.25556946 2.3188744m-31.170273 -5.0237274l0 0c0.6307373 -1.0697899 1.4660568 -2.0658722 2.4799652 -2.9572296m-25.674133 4.3662987l0 0c0.2573166 -0.884079 0.6607666 -1.740799 1.2010574 -2.5504227m-28.422066 3.4169273l0 0c1.5775642 0.6902847 3.0370255 1.521122 4.3463287 2.4742546m-37.357735 16.97181l0 0c-0.3443737 -0.85147095 -0.5980091 -1.7219505 -0.7585335 -2.6032982" fill-rule="evenodd"/>
<path stroke="#595959" stroke-width="1.0" stroke-linejoin="round" stroke-linecap="butt" d="m28.310497 56.42675c-1.1646595 -6.394497 2.659029 -12.724678 9.848541 -16.30442c7.189514 -3.5797462 16.483974 -3.7812538 23.939423 -0.51901245l0 0c2.6408043 -3.7182922 7.474415 -6.2855263 13.038692 -6.925129c5.56427 -0.6396065 11.205627 0.7235451 15.217598 3.6771088l0 0c2.2496948 -3.3711815 6.667076 -5.6361923 11.684616 -5.99127c5.0175323 -0.35507774 9.925087 1.2500286 12.981186 4.2457333l0 0c4.0644913 -3.5732365 10.531158 -5.0777016 16.601852 -3.8624096c6.070694 1.215292 10.65506 4.932066 11.76947 9.542067l0 0c4.9794617 1.0148315 9.127243 3.5946388 11.371704 7.0728836c2.244461 3.4782448 2.3654327 7.5137253 0.33164978 11.063812c4.9036865 4.7681465 6.0508575 11.121708 3.0133667 16.68961c-3.0374756 5.5679092 -9.803238 9.513626 -17.77237 10.364662c-0.056167603 5.225853 -3.891983 10.021027 -10.028915 12.537216c-6.1369476 2.5161896 -13.616692 2.3604736 -19.55616 -0.40712738c-2.5299454 6.2588425 -9.651024 10.864044 -18.286621 11.825966c-8.635597 0.9619293 -17.237602 -1.8918762 -22.089577 -7.3284454l0 0c-5.9474792 2.679657 -13.083988 3.4515915 -19.799648 2.1416702c-6.715664 -1.3099289 -12.444775 -4.5913773 -15.894939 -9.104103l0 0c-6.0775356 0.53139496 -11.953686 -1.8212433 -14.712162 -5.8903275c-2.7584763 -4.0690765 -1.812067 -8.988396 2.3695297 -12.316521l0 0c-5.421612 -2.3841171 -8.188054 -7.1150208 -6.8567324 -11.725723c1.3313208 -4.6107025 6.458722 -8.0563965 12.708457 -8.540287z" fill-rule="evenodd"/>
<path stroke="#595959" stroke-width="1.0" stroke-linejoin="round" stroke-linecap="butt" d="m109.116714 141.33026c0 1.219574 -0.9886551 2.2082367 -2.2082214 2.2082367c-1.2195663 0 -2.2082214 -0.9886627 -2.2082214 -2.2082367c0 -1.2195587 0.9886551 -2.2082214 2.2082214 -2.2082214c1.2195663 0 2.2082214 0.9886627 2.2082214 2.2082214z" fill-rule="evenodd"/>
<path stroke="#595959" stroke-width="1.0" stroke-linejoin="round" stroke-linecap="butt" d="m108.8235 132.01802c0 2.439148 -1.9773102 4.416458 -4.4164505 4.416458c-2.4391403 0 -4.4164505 -1.9773102 -4.4164505 -4.416458c0 -2.4391327 1.9773102 -4.416443 4.4164505 -4.416443c2.4391403 0 4.4164505 1.9773102 4.4164505 4.416443z" fill-rule="evenodd"/>
<path stroke="#595959" stroke-width="1.0" stroke-linejoin="round" stroke-linecap="butt" d="m107.38455 118.44054c0 3.6587067 -2.9659653 6.624672 -6.624672 6.624672c-3.658699 0 -6.624672 -2.9659653 -6.624672 -6.624672c0 -3.6587067 2.965973 -6.624672 6.624672 -6.624672c3.6587067 0 6.624672 2.9659653 6.624672 6.624672z" fill-rule="evenodd"/>
<path stroke="#595959" stroke-width="1.0" stroke-linejoin="round" stroke-linecap="butt" d="m30.962467 78.09274l0 0c-2.9559288 0.17287445 -5.9115353 -0.33747864 -8.469988 -1.4625473m15.94306 17.46775c-1.1886368 0.353508 -2.4345894 0.5888672 -3.7057266 0.7000046m35.636787 6.9905777l0 0c-0.8940048 -1.0017166 -1.6425095 -2.0721436 -2.2327652 -3.1930313m43.523582 -4.7691574c-0.1314621 1.1881256 -0.43030548 2.3625183 -0.8915405 3.5035706m18.618813 -25.151016l0 0c6.7015686 2.4365997 10.93071 7.530678 10.870911 13.094254m14.771225 -27.040512c-1.0852966 1.894474 -2.742157 3.5750427 -4.840637 4.909935m-6.7751465 -23.128445l0 0c0.18493652 0.765049 0.27052307 1.5415916 0.25556946 2.3188744m-31.170273 -5.0237274l0 0c0.6307373 -1.0697899 1.4660568 -2.0658722 2.4799652 -2.9572296m-25.674133 4.3662987l0 0c0.2573166 -0.884079 0.6607666 -1.740799 1.2010574 -2.5504227m-28.422066 3.4169273l0 0c1.5775642 0.6902847 3.0370255 1.521122 4.3463287 2.4742546m-37.357735 16.97181l0 0c-0.3443737 -0.85147095 -0.5980091 -1.7219505 -0.7585335 -2.6032982" fill-rule="evenodd"/>
</g>

</defs>
<!-- version="1.1" 
 xmlns:xlink="http://www.w3.org/1999/xlink" 

fill="none" stroke="none" stroke-linecap="square" 
stroke-miterlimit="10"
 xmlns:xlink="http://www.w3.org/1999/xlink" x
 mlns="http://www.w3.org/2000/svg" -->

<use href="#person"></use>
<use href="#world"></use>
<!-- <use href="#thought"></use>
<use href="#approximation"></use>
<use href="#chalkboard"></use>
<use href="#glassboard"></use>
<use href="#line1-chalkboard"></use>
<use href="#line2-chalkboard"></use>
<use href="#line3-chalkboard"></use>
<use href="#line1-glassboard"></use>
<use href="#line2-glassboard"></use>
<use href="#line3-glassboard"></use>
<use href="#arrow"></use>
<use href="#spoken-algorithm"></use>
<use href="#programming-algorithm"></use> -->

<!-- <use href="person.svg.frag"></use> -->

</svg>