<svg version="1.1" viewBox="0 0 500 500" fill="none" stroke="none" xmlns="http://www.w3.org/2000/svg">
  <!-- Green circle (converted from ellipse) -->
  <circle cx="250" cy="250" r="210" fill="#6aa84f"/>
  
  
  <text x="250" y="160" fill="white" text-anchor="middle" 
  font-family="Arial, sans-serif" font-size="28" font-weight="bold">Computer Science</text>
  

  
 <!-- gray algorithms box -->

    <!-- Card -->
    <path fill="#eeeeee" stroke="#595959" stroke-width="1.0" 
          d="M90 175L385 175L405 200L405 366.08L90 366.08Z"/>
    
    <!-- Algorithm title -->
    <text x="203" y="205" font-family="sans-serif" font-size="16" fill="#595959">Algorithm</text>
    
    <!-- Horizontal lines -->
    <g stroke="#595959" stroke-width="3.0">
        <line x1="100" y1="223.32" x2="240" y2="223.32"/>
        <line x1="100" y1="236.09" x2="240" y2="236.09"/>
        <line x1="100" y1="248.86" x2="240" y2="248.86"/>
        <line x1="100" y1="261.63" x2="240" y2="261.63"/>
        <line x1="100" y1="274.40" x2="240" y2="274.40"/>
        <line x1="100" y1="287.17" x2="240" y2="287.17"/>
        <line x1="100" y1="299.94" x2="240" y2="299.94"/>
        <line x1="100" y1="312.72" x2="240" y2="312.72"/>
        <line x1="100" y1="325.49" x2="240" y2="325.49"/>
        <line x1="100" y1="338.26" x2="240" y2="338.26"/>
        <line x1="100" y1="351.03" x2="240" y2="351.03"/>
        
        <line x1="255" y1="223.32" x2="395" y2="223.32"/>
        <line x1="255" y1="236.09" x2="395" y2="236.09"/>
        <line x1="255" y1="248.86" x2="395" y2="248.86"/>
        <line x1="255" y1="261.63" x2="395" y2="261.63"/>
        <line x1="255" y1="274.40" x2="395" y2="274.40"/>
        <line x1="255" y1="287.17" x2="395" y2="287.17"/>
        <line x1="255" y1="299.94" x2="395" y2="299.94"/>
        <line x1="255" y1="312.72" x2="395" y2="312.72"/>
        <line x1="255" y1="325.49" x2="395" y2="325.49"/>
        <line x1="255" y1="338.26" x2="395" y2="338.26"/>
        <line x1="255" y1="351.03" x2="395" y2="351.03"/>
    </g>
</svg>