<svg version="1.1" viewBox="0.0 0.0 671.7060367454068 291.9501312335958" fill="none" stroke="none" stroke-linecap="square" stroke-miterlimit="10" xmlns:xlink="http://www.w3.org/1999/xlink" xmlns="http://www.w3.org/2000/svg"><clipPath id="p.0"><path d="m0 0l671.70605 0l0 291.95013l-671.70605 0l0 -291.95013z" clip-rule="nonzero"/></clipPath><g clip-path="url(#p.0)"><path fill="#000000" fill-opacity="0.0" d="m0 0l671.70605 0l0 291.95013l-671.70605 0z" fill-rule="evenodd"/><path fill="#c9daf8" d="m0 0l334.4567 0l0 291.68503l-334.4567 0z" fill-rule="evenodd"/><path fill="#1c4587" d="m116.11311 72.97168l3.640625 0l9.328125 23.1875l9.296875 -23.1875l3.671875 0l-11.5625 28.4375l-2.859375 0l-11.515625 -28.4375zm-1.203125 0l3.234375 0l0.515625 17.34375l0 11.09375l-3.75 0l0 -28.4375zm25.078125 0l3.234375 0l0 28.4375l-3.75 0l0 -11.09375l0.515625 -17.34375zm8.34375 18.109375l0 -0.453125q0 -2.28125 0.65625 -4.25q0.671875 -1.96875 1.921875 -3.421875q1.25 -1.453125 3.03125 -2.265625q1.78125 -0.8125 3.984375 -0.8125q2.21875 0 4.0 0.8125q1.796875 0.8125 3.046875 2.265625q1.265625 1.453125 1.921875 3.421875q0.671875 1.96875 0.671875 4.25l0 0.453125q0 2.28125 -0.671875 4.234375q-0.65625 1.953125 -1.921875 3.40625q-1.25 1.453125 -3.015625 2.265625q-1.765625 0.8125 -4.0 0.8125q-2.21875 0 -4.0 -0.8125q-1.78125 -0.8125 -3.046875 -2.265625q-1.25 -1.453125 -1.921875 -3.40625q-0.65625 -1.953125 -0.65625 -4.234375zm3.609375 -0.453125l0 0.453125q0 1.578125 0.375 2.984375q0.375 1.390625 1.125 2.46875q0.75 1.0625 1.875 1.6875q1.140625 0.609375 2.640625 0.609375q1.484375 0 2.609375 -0.609375q1.125 -0.625 1.859375 -1.6875q0.75 -1.078125 1.125 -2.46875q0.390625 -1.40625 0.390625 -2.984375l0 -0.453125q0 -1.5625 -0.390625 -2.953125q-0.375 -1.40625 -1.125 -2.484375q-0.75 -1.09375 -1.875 -1.71875q-1.125 -0.625 -2.625 -0.625q-1.484375 0 -2.609375 0.625q-1.125 0.625 -1.875 1.71875q-0.75 1.078125 -1.125 2.484375q-0.375 1.390625 -0.375 2.953125zm33.484375 6.671875l0 -25.890625l3.625 0l0 30.0l-3.3125 0l-0.3125 -4.109375zm-14.21875 -6.21875l0 -0.421875q0 -2.421875 0.59375 -4.390625q0.59375 -1.984375 1.6875 -3.40625q1.109375 -1.4375 2.640625 -2.203125q1.546875 -0.78125 3.4375 -0.78125q1.984375 0 3.484375 0.703125q1.5 0.6875 2.53125 2.015625q1.046875 1.3125 1.65625 3.171875q0.609375 1.84375 0.84375 4.1875l0 1.796875q-0.21875 2.328125 -0.84375 4.1875q-0.609375 1.859375 -1.65625 3.171875q-1.03125 1.296875 -2.546875 2.0q-1.5 0.6875 -3.515625 0.6875q-1.84375 0 -3.390625 -0.796875q-1.53125 -0.8125 -2.640625 -2.25q-1.09375 -1.453125 -1.6875 -3.40625q-0.59375 -1.96875 -0.59375 -4.265625zm3.625 -0.421875l0 0.421875q0 1.578125 0.328125 2.96875q0.328125 1.375 1.0 2.4375q0.6875 1.046875 1.734375 1.65625q1.0625 0.59375 2.53125 0.59375q1.796875 0 2.953125 -0.765625q1.171875 -0.765625 1.875 -2.015625q0.703125 -1.25 1.09375 -2.71875l0 -4.703125q-0.234375 -1.078125 -0.6875 -2.078125q-0.4375 -1.0 -1.125 -1.796875q-0.6875 -0.796875 -1.703125 -1.265625q-1.0 -0.46875 -2.375 -0.46875q-1.484375 0 -2.546875 0.625q-1.0625 0.609375 -1.75 1.671875q-0.671875 1.0625 -1.0 2.46875q-0.328125 1.390625 -0.328125 2.96875zm28.605469 11.140625q-2.21875 0 -4.0 -0.75q-1.78125 -0.75 -3.0625 -2.109375q-1.28125 -1.375 -1.96875 -3.25q-0.6875 -1.875 -0.6875 -4.109375l0 -0.8125q0 -2.578125 0.765625 -4.59375q0.765625 -2.03125 2.0625 -3.4375q1.3125 -1.40625 2.96875 -2.125q1.671875 -0.734375 3.453125 -0.734375q2.265625 0 3.90625 0.78125q1.65625 0.78125 2.703125 2.1875q1.0625 1.390625 1.5625 3.28125q0.515625 1.875 0.515625 4.109375l0 1.625l-15.78125 0l0 -2.953125l12.171875 0l0 -0.28125q-0.078125 -1.40625 -0.578125 -2.734375q-0.5 -1.328125 -1.578125 -2.1875q-1.078125 -0.859375 -2.921875 -0.859375q-1.234375 0 -2.28125 0.53125q-1.03125 0.515625 -1.78125 1.53125q-0.734375 1.015625 -1.140625 2.484375q-0.40625 1.453125 -0.40625 3.375l0 0.8125q0 1.5 0.421875 2.828125q0.421875 1.3125 1.21875 2.3125q0.8125 1.0 1.96875 1.5625q1.171875 0.5625 2.65625 0.5625q1.921875 0 3.25 -0.78125q1.328125 -0.78125 2.3125 -2.09375l2.1875 1.75q-0.671875 1.03125 -1.734375 1.96875q-1.046875 0.9375 -2.59375 1.53125q-1.53125 0.578125 -3.609375 0.578125zm16.367188 -30.390625l0 30.0l-3.640625 0l0 -30.0l3.640625 0z" fill-rule="nonzero"/><path fill="#1c4587" d="m77.23616 234.36751l0 -0.1875q0 -4.265625 0.953125 -7.703125q0.953125 -3.453125 2.4375 -6.046875q1.484375 -2.59375 3.125 -4.296875q1.640625 -1.71875 3.03125 -2.484375l0.765625 2.390625q-1.15625 0.875 -2.34375 2.421875q-1.171875 1.53125 -2.171875 3.78125q-0.984375 2.25 -1.59375 5.21875q-0.59375 2.96875 -0.59375 6.671875l0 0.28125q0 3.703125 0.59375 6.6875q0.609375 2.984375 1.59375 5.25q1.0 2.265625 2.171875 3.859375q1.1875 1.59375 2.34375 2.53125l-0.765625 2.1875q-1.390625 -0.765625 -3.03125 -2.484375q-1.640625 -1.703125 -3.125 -4.296875q-1.484375 -2.578125 -2.4375 -6.03125q-0.953125 -3.46875 -0.953125 -7.75zm22.675781 -9.765625l0 2.78125l-11.4375 0l0 -2.78125l11.4375 0zm-7.5625 -5.125l3.609375 0l0 21.03125q0 1.078125 0.328125 1.625q0.34375 0.546875 0.859375 0.71875q0.53125 0.171875 1.140625 0.171875q0.453125 0 0.9375 -0.078125q0.5 -0.09375 0.765625 -0.15625l0.015625 2.953125q-0.4375 0.140625 -1.125 0.265625q-0.6875 0.125 -1.671875 0.125q-1.328125 0 -2.4375 -0.53125q-1.109375 -0.53125 -1.765625 -1.765625q-0.65625 -1.234375 -0.65625 -3.34375l0 -21.015625zm20.570312 26.65625q-2.21875 0 -4.0 -0.75q-1.78125 -0.75 -3.0625 -2.109375q-1.28125 -1.375 -1.96875 -3.25q-0.6875 -1.875 -0.6875 -4.109375l0 -0.8125q0 -2.578125 0.765625 -4.59375q0.765625 -2.03125 2.0625 -3.4375q1.3125 -1.40625 2.96875 -2.125q1.671875 -0.734375 3.453125 -0.734375q2.265625 0 3.90625 0.78125q1.65625 0.78125 2.703125 2.1875q1.0625 1.390625 1.5625 3.28125q0.515625 1.875 0.515625 4.109375l0 1.625l-15.78125 0l0 -2.953125l12.171875 0l0 -0.28125q-0.078125 -1.40625 -0.578125 -2.734375q-0.5 -1.328125 -1.578125 -2.1875q-1.078125 -0.859375 -2.921875 -0.859375q-1.234375 0 -2.28125 0.53125q-1.03125 0.515625 -1.78125 1.53125q-0.734375 1.015625 -1.140625 2.484375q-0.40625 1.453125 -0.40625 3.375l0 0.8125q0 1.5 0.421875 2.828125q0.421875 1.3125 1.21875 2.3125q0.8125 1.0 1.96875 1.5625q1.171875 0.5625 2.65625 0.5625q1.921875 0 3.25 -0.78125q1.328125 -0.78125 2.3125 -2.09375l2.1875 1.75q-0.671875 1.03125 -1.734375 1.96875q-1.046875 0.9375 -2.59375 1.53125q-1.53125 0.578125 -3.609375 0.578125zm16.023438 -17.328125l0 16.9375l-3.625 0l0 -21.140625l3.4375 0l0.1875 4.203125zm-0.734375 5.5625l-1.6875 -0.046875q0.03125 -2.171875 0.578125 -4.015625q0.546875 -1.84375 1.609375 -3.203125q1.078125 -1.375 2.671875 -2.125q1.609375 -0.765625 3.71875 -0.765625q1.484375 0 2.734375 0.421875q1.25 0.421875 2.171875 1.328125q0.921875 0.890625 1.421875 2.296875q0.515625 1.40625 0.515625 3.40625l0 14.078125l-3.625 0l0 -13.90625q0 -1.65625 -0.5625 -2.65625q-0.546875 -1.0 -1.5625 -1.453125q-1.015625 -0.46875 -2.375 -0.46875q-1.609375 0 -2.6875 0.578125q-1.0625 0.5625 -1.71875 1.5625q-0.640625 0.984375 -0.921875 2.265625q-0.28125 1.28125 -0.28125 2.703125zm13.6875 -1.984375l-2.421875 0.734375q0.015625 -1.734375 0.578125 -3.328125q0.5625 -1.609375 1.625 -2.859375q1.0625 -1.25 2.625 -1.984375q1.5625 -0.734375 3.578125 -0.734375q1.6875 0 3.0 0.453125q1.328125 0.453125 2.234375 1.390625q0.90625 0.921875 1.375 2.375q0.46875 1.4375 0.46875 3.421875l0 13.890625l-3.625 0l0 -13.921875q0 -1.78125 -0.5625 -2.765625q-0.546875 -0.984375 -1.5625 -1.390625q-1.0 -0.40625 -2.390625 -0.40625q-1.1875 0 -2.109375 0.421875q-0.921875 0.40625 -1.546875 1.125q-0.625 0.703125 -0.953125 1.625q-0.3125 0.921875 -0.3125 1.953125zm22.15625 -3.71875l0 25.203125l-3.640625 0l0 -29.265625l3.328125 0l0.3125 4.0625zm14.234375 6.328125l0 0.421875q0 2.296875 -0.546875 4.265625q-0.546875 1.953125 -1.59375 3.40625q-1.046875 1.4375 -2.578125 2.25q-1.515625 0.796875 -3.484375 0.796875q-2.015625 0 -3.5625 -0.65625q-1.53125 -0.671875 -2.609375 -1.9375q-1.078125 -1.28125 -1.71875 -3.046875q-0.625 -1.78125 -0.859375 -4.015625l0 -2.1875q0.234375 -2.34375 0.875 -4.1875q0.640625 -1.859375 1.703125 -3.171875q1.078125 -1.328125 2.59375 -2.015625q1.53125 -0.703125 3.515625 -0.703125q2.0 0 3.53125 0.78125q1.546875 0.765625 2.59375 2.203125q1.0625 1.421875 1.59375 3.40625q0.546875 1.96875 0.546875 4.390625zm-3.640625 0.421875l0 -0.421875q0 -1.578125 -0.328125 -2.96875q-0.328125 -1.40625 -1.03125 -2.46875q-0.6875 -1.0625 -1.765625 -1.671875q-1.0625 -0.625 -2.546875 -0.625q-1.375 0 -2.390625 0.46875q-1.0 0.46875 -1.703125 1.265625q-0.703125 0.796875 -1.140625 1.796875q-0.4375 1.0 -0.65625 2.078125l0 5.0625q0.390625 1.359375 1.09375 2.5625q0.703125 1.203125 1.875 1.9375q1.171875 0.734375 2.953125 0.734375q1.46875 0 2.53125 -0.609375q1.0625 -0.625 1.75 -1.6875q0.703125 -1.078125 1.03125 -2.46875q0.328125 -1.40625 0.328125 -2.984375zm12.1796875 -19.671875l0 30.0l-3.640625 0l0 -30.0l3.640625 0zm18.257812 26.390625l0 -10.890625q0 -1.25 -0.5 -2.171875q-0.5 -0.921875 -1.5 -1.421875q-0.984375 -0.515625 -2.453125 -0.515625q-1.375 0 -2.40625 0.46875q-1.015625 0.46875 -1.59375 1.234375q-0.578125 0.75 -0.578125 1.625l-3.609375 0q0 -1.125 0.578125 -2.234375q0.59375 -1.125 1.6875 -2.03125q1.109375 -0.90625 2.65625 -1.4375q1.5625 -0.546875 3.484375 -0.546875q2.296875 0 4.0625 0.78125q1.765625 0.78125 2.765625 2.359375q1.015625 1.578125 1.015625 3.9375l0 9.84375q0 1.046875 0.1875 2.25q0.1875 1.1875 0.5625 2.046875l0 0.3125l-3.78125 0q-0.265625 -0.625 -0.421875 -1.671875q-0.15625 -1.046875 -0.15625 -1.9375zm0.625 -9.203125l0.03125 2.53125l-3.640625 0q-1.546875 0 -2.765625 0.25q-1.203125 0.25 -2.03125 0.734375q-0.8125 0.484375 -1.25 1.21875q-0.421875 0.734375 -0.421875 1.703125q0 1.0 0.4375 1.828125q0.453125 0.8125 1.359375 1.296875q0.921875 0.46875 2.25 0.46875q1.65625 0 2.921875 -0.703125q1.265625 -0.703125 2.015625 -1.71875q0.765625 -1.015625 0.8125 -1.96875l1.546875 1.734375q-0.140625 0.828125 -0.75 1.828125q-0.59375 0.984375 -1.609375 1.90625q-1.0 0.90625 -2.375 1.5q-1.375 0.59375 -3.09375 0.59375q-2.15625 0 -3.765625 -0.84375q-1.609375 -0.84375 -2.5 -2.25q-0.890625 -1.421875 -0.890625 -3.171875q0 -1.703125 0.65625 -3.0q0.671875 -1.296875 1.921875 -2.171875q1.25 -0.875 3.0 -1.3125q1.765625 -0.453125 3.9375 -0.453125l4.203125 0zm17.523438 -8.328125l0 2.78125l-11.4375 0l0 -2.78125l11.4375 0zm-7.5625 -5.125l3.609375 0l0 21.03125q0 1.078125 0.328125 1.625q0.34375 0.546875 0.859375 0.71875q0.53125 0.171875 1.140625 0.171875q0.453125 0 0.9375 -0.078125q0.5 -0.09375 0.765625 -0.15625l0.015625 2.953125q-0.4375 0.140625 -1.125 0.265625q-0.6875 0.125 -1.671875 0.125q-1.328125 0 -2.4375 -0.53125q-1.109375 -0.53125 -1.765625 -1.765625q-0.65625 -1.234375 -0.65625 -3.34375l0 -21.015625zm20.570312 26.65625q-2.21875 0 -4.0 -0.75q-1.78125 -0.75 -3.0625 -2.109375q-1.28125 -1.375 -1.96875 -3.25q-0.6875 -1.875 -0.6875 -4.109375l0 -0.8125q0 -2.578125 0.765625 -4.59375q0.765625 -2.03125 2.0625 -3.4375q1.3125 -1.40625 2.96875 -2.125q1.671875 -0.734375 3.453125 -0.734375q2.265625 0 3.90625 0.78125q1.65625 0.78125 2.703125 2.1875q1.0625 1.390625 1.5625 3.28125q0.515625 1.875 0.515625 4.109375l0 1.625l-15.78125 0l0 -2.953125l12.171875 0l0 -0.28125q-0.078125 -1.40625 -0.578125 -2.734375q-0.5 -1.328125 -1.578125 -2.1875q-1.078125 -0.859375 -2.921875 -0.859375q-1.234375 0 -2.28125 0.53125q-1.03125 0.515625 -1.78125 1.53125q-0.734375 1.015625 -1.140625 2.484375q-0.40625 1.453125 -0.40625 3.375l0 0.8125q0 1.5 0.421875 2.828125q0.421875 1.3125 1.21875 2.3125q0.8125 1.0 1.96875 1.5625q1.171875 0.5625 2.65625 0.5625q1.921875 0 3.25 -0.78125q1.328125 -0.78125 2.3125 -2.09375l2.1875 1.75q-0.671875 1.03125 -1.734375 1.96875q-1.046875 0.9375 -2.59375 1.53125q-1.53125 0.578125 -3.609375 0.578125zm20.757797 -11.953125l0 0.1875q0 4.28125 -0.96875 7.75q-0.95310974 3.453125 -2.4374847 6.03125q-1.484375 2.59375 -3.125 4.296875q-1.640625 1.71875 -3.015625 2.484375l-0.765625 -2.1875q1.15625 -0.890625 2.328125 -2.46875q1.171875 -1.5625 2.15625 -3.859375q1.0 -2.296875 1.609375 -5.296875q0.609375 -3.0 0.609375 -6.703125l0 -0.28125q0 -3.703125 -0.65625 -6.703125q-0.640625 -3.0 -1.671875 -5.28125q-1.015625 -2.28125 -2.1875 -3.859375q-1.15625 -1.578125 -2.1875 -2.4375l0.765625 -2.203125q1.375 0.765625 3.015625 2.484375q1.640625 1.703125 3.125 4.296875q1.484375 2.59375 2.4374847 6.046875q0.96875 3.4375 0.96875 7.703125z" fill-rule="nonzero"/><path fill="#1c4587" d="m334.4567 0l244.49808 0l89.95862 89.95858l0 201.72644l-334.4567 0z" fill-rule="evenodd"/><path fill="#ffffff" d="m389.94537 99.57591l-7.609375 0l0 -3.0625l7.609375 0q2.203125 0 3.5625 -0.703125q1.375 -0.703125 2.0 -1.953125q0.640625 -1.25 0.640625 -2.859375q0 -1.453125 -0.640625 -2.734375q-0.625 -1.296875 -2.0 -2.09375q-1.359375 -0.796875 -3.5625 -0.796875l-6.71875 0l0 25.359375l-3.78125 0l0 -28.4375l10.5 0q3.21875 0 5.4375 1.109375q2.234375 1.109375 3.375 3.078125q1.15625 1.96875 1.15625 4.484375q0 2.734375 -1.15625 4.671875q-1.140625 1.921875 -3.375 2.9375q-2.21875 1.0 -5.4375 1.0zm26.441406 7.546875l0 -10.890625q0 -1.25 -0.5 -2.171875q-0.5 -0.921875 -1.5 -1.421875q-0.984375 -0.515625 -2.453125 -0.515625q-1.375 0 -2.40625 0.46875q-1.015625 0.46875 -1.59375 1.234375q-0.578125 0.75 -0.578125 1.625l-3.609375 0q0 -1.125 0.578125 -2.234375q0.59375 -1.125 1.6875 -2.03125q1.109375 -0.90625 2.65625 -1.4375q1.5625 -0.546875 3.484375 -0.546875q2.296875 0 4.0625 0.78125q1.765625 0.78125 2.765625 2.359375q1.015625 1.578125 1.015625 3.9375l0 9.84375q0 1.046875 0.1875 2.25q0.1875 1.1875 0.5625 2.046875l0 0.3125l-3.78125 0q-0.265625 -0.625 -0.421875 -1.671875q-0.15625 -1.046875 -0.15625 -1.9375zm0.625 -9.203125l0.03125 2.53125l-3.640625 0q-1.546875 0 -2.765625 0.25q-1.203125 0.25 -2.03125 0.734375q-0.8125 0.484375 -1.25 1.21875q-0.421875 0.734375 -0.421875 1.703125q0 1.0 0.4375 1.828125q0.453125 0.8125 1.359375 1.296875q0.921875 0.46875 2.25 0.46875q1.65625 0 2.921875 -0.703125q1.265625 -0.703125 2.015625 -1.71875q0.765625 -1.015625 0.8125 -1.96875l1.546875 1.734375q-0.140625 0.828125 -0.75 1.828125q-0.59375 0.984375 -1.609375 1.90625q-1.0 0.90625 -2.375 1.5q-1.375 0.59375 -3.09375 0.59375q-2.15625 0 -3.765625 -0.84375q-1.609375 -0.84375 -2.5 -2.25q-0.890625 -1.421875 -0.890625 -3.171875q0 -1.703125 0.65625 -3.0q0.671875 -1.296875 1.921875 -2.171875q1.25 -0.875 3.0 -1.3125q1.765625 -0.453125 3.9375 -0.453125l4.203125 0zm12.2890625 -5.0l0 17.8125l-3.625 0l0 -21.140625l3.515625 0l0.109375 3.328125zm6.59375 -3.4375l-0.015625 3.359375q-0.453125 -0.09375 -0.859375 -0.125q-0.390625 -0.03125 -0.90625 -0.03125q-1.25 0 -2.203125 0.390625q-0.953125 0.390625 -1.625 1.09375q-0.65625 0.703125 -1.046875 1.671875q-0.375 0.96875 -0.484375 2.109375l-1.015625 0.59375q0 -1.921875 0.375 -3.59375q0.375 -1.6875 1.171875 -2.984375q0.8125 -1.296875 2.046875 -2.03125q1.25 -0.734375 2.96875 -0.734375q0.390625 0 0.890625 0.09375q0.515625 0.09375 0.703125 0.1875zm15.0234375 17.640625l0 -10.890625q0 -1.25 -0.5 -2.171875q-0.5 -0.921875 -1.5 -1.421875q-0.984375 -0.515625 -2.453125 -0.515625q-1.375 0 -2.40625 0.46875q-1.015625 0.46875 -1.59375 1.234375q-0.578125 0.75 -0.578125 1.625l-3.609375 0q0 -1.125 0.578125 -2.234375q0.59375 -1.125 1.6875 -2.03125q1.109375 -0.90625 2.65625 -1.4375q1.5625 -0.546875 3.484375 -0.546875q2.296875 0 4.0625 0.78125q1.765625 0.78125 2.765625 2.359375q1.015625 1.578125 1.015625 3.9375l0 9.84375q0 1.046875 0.1875 2.25q0.1875 1.1875 0.5625 2.046875l0 0.3125l-3.78125 0q-0.265625 -0.625 -0.421875 -1.671875q-0.15625 -1.046875 -0.15625 -1.9375zm0.625 -9.203125l0.03125 2.53125l-3.640625 0q-1.546875 0 -2.765625 0.25q-1.203125 0.25 -2.03125 0.734375q-0.8125 0.484375 -1.25 1.21875q-0.421875 0.734375 -0.421875 1.703125q0 1.0 0.4375 1.828125q0.453125 0.8125 1.359375 1.296875q0.921875 0.46875 2.25 0.46875q1.65625 0 2.921875 -0.703125q1.265625 -0.703125 2.015625 -1.71875q0.765625 -1.015625 0.8125 -1.96875l1.546875 1.734375q-0.140625 0.828125 -0.75 1.828125q-0.59375 0.984375 -1.609375 1.90625q-1.0 0.90625 -2.375 1.5q-1.375 0.59375 -3.09375 0.59375q-2.15625 0 -3.765625 -0.84375q-1.609375 -0.84375 -2.5 -2.25q-0.890625 -1.421875 -0.890625 -3.171875q0 -1.703125 0.65625 -3.0q0.671875 -1.296875 1.921875 -2.171875q1.25 -0.875 3.0 -1.3125q1.765625 -0.453125 3.9375 -0.453125l4.203125 0zm12.2578125 -4.125l0 16.9375l-3.625 0l0 -21.140625l3.4375 0l0.1875 4.203125zm-0.734375 5.5625l-1.6875 -0.046875q0.03125 -2.171875 0.578125 -4.015625q0.546875 -1.84375 1.609375 -3.203125q1.078125 -1.375 2.671875 -2.125q1.609375 -0.765625 3.71875 -0.765625q1.484375 0 2.734375 0.421875q1.25 0.421875 2.171875 1.328125q0.921875 0.890625 1.421875 2.296875q0.515625 1.40625 0.515625 3.40625l0 14.078125l-3.625 0l0 -13.90625q0 -1.65625 -0.5625 -2.65625q-0.546875 -1.0 -1.5625 -1.453125q-1.015625 -0.46875 -2.375 -0.46875q-1.609375 0 -2.6875 0.578125q-1.0625 0.5625 -1.71875 1.5625q-0.640625 0.984375 -0.921875 2.265625q-0.28125 1.28125 -0.28125 2.703125zm13.6875 -1.984375l-2.421875 0.734375q0.015625 -1.734375 0.578125 -3.328125q0.5625 -1.609375 1.625 -2.859375q1.0625 -1.25 2.625 -1.984375q1.5625 -0.734375 3.578125 -0.734375q1.6875 0 3.0 0.453125q1.328125 0.453125 2.234375 1.390625q0.90625 0.921875 1.375 2.375q0.46875 1.4375 0.46875 3.421875l0 13.890625l-3.625 0l0 -13.921875q0 -1.78125 -0.5625 -2.765625q-0.546875 -0.984375 -1.5625 -1.390625q-1.0 -0.40625 -2.390625 -0.40625q-1.1875 0 -2.109375 0.421875q-0.921875 0.40625 -1.546875 1.125q-0.625 0.703125 -0.953125 1.625q-0.3125 0.921875 -0.3125 1.953125zm27.3125 13.75q-2.21875 0 -4.0 -0.75q-1.78125 -0.75 -3.0625 -2.109375q-1.28125 -1.375 -1.96875 -3.25q-0.6875 -1.875 -0.6875 -4.109375l0 -0.8125q0 -2.578125 0.765625 -4.59375q0.765625 -2.03125 2.0625 -3.4375q1.3125 -1.40625 2.96875 -2.125q1.671875 -0.734375 3.453125 -0.734375q2.265625 0 3.90625 0.78125q1.65625 0.78125 2.703125 2.1875q1.0625 1.390625 1.5625 3.28125q0.515625 1.875 0.515625 4.109375l0 1.625l-15.78125 0l0 -2.953125l12.171875 0l0 -0.28125q-0.078125 -1.40625 -0.578125 -2.734375q-0.5 -1.328125 -1.578125 -2.1875q-1.078125 -0.859375 -2.921875 -0.859375q-1.234375 0 -2.28125 0.53125q-1.03125 0.515625 -1.78125 1.53125q-0.734375 1.015625 -1.140625 2.484375q-0.40625 1.453125 -0.40625 3.375l0 0.8125q0 1.5 0.421875 2.828125q0.421875 1.3125 1.21875 2.3125q0.8125 1.0 1.96875 1.5625q1.171875 0.5625 2.65625 0.5625q1.921875 0 3.25 -0.78125q1.328125 -0.78125 2.3125 -2.09375l2.1875 1.75q-0.671875 1.03125 -1.734375 1.96875q-1.046875 0.9375 -2.59375 1.53125q-1.53125 0.578125 -3.609375 0.578125zm21.289062 -21.53125l0 2.78125l-11.4375 0l0 -2.78125l11.4375 0zm-7.5625 -5.125l3.609375 0l0 21.03125q0 1.078125 0.328125 1.625q0.34375 0.546875 0.859375 0.71875q0.53125 0.171875 1.140625 0.171875q0.453125 0 0.9375 -0.078125q0.5 -0.09375 0.765625 -0.15625l0.015625 2.953125q-0.4375 0.140625 -1.125 0.265625q-0.6875 0.125 -1.671875 0.125q-1.328125 0 -2.4375 -0.53125q-1.109375 -0.53125 -1.765625 -1.765625q-0.65625 -1.234375 -0.65625 -3.34375l0 -21.015625zm20.570312 26.65625q-2.21875 0 -4.0 -0.75q-1.78125 -0.75 -3.0625 -2.109375q-1.28125 -1.375 -1.96875 -3.25q-0.6875 -1.875 -0.6875 -4.109375l0 -0.8125q0 -2.578125 0.765625 -4.59375q0.765625 -2.03125 2.0625 -3.4375q1.3125 -1.40625 2.96875 -2.125q1.671875 -0.734375 3.453125 -0.734375q2.265625 0 3.90625 0.78125q1.65625 0.78125 2.703125 2.1875q1.0625 1.390625 1.5625 3.28125q0.515625 1.875 0.515625 4.109375l0 1.625l-15.78125 0l0 -2.953125l12.171875 0l0 -0.28125q-0.078125 -1.40625 -0.578125 -2.734375q-0.5 -1.328125 -1.578125 -2.1875q-1.078125 -0.859375 -2.921875 -0.859375q-1.234375 0 -2.28125 0.53125q-1.03125 0.515625 -1.78125 1.53125q-0.734375 1.015625 -1.140625 2.484375q-0.40625 1.453125 -0.40625 3.375l0 0.8125q0 1.5 0.421875 2.828125q0.421875 1.3125 1.21875 2.3125q0.8125 1.0 1.96875 1.5625q1.171875 0.5625 2.65625 0.5625q1.921875 0 3.25 -0.78125q1.328125 -0.78125 2.3125 -2.09375l2.1875 1.75q-0.671875 1.03125 -1.734375 1.96875q-1.046875 0.9375 -2.59375 1.53125q-1.53125 0.578125 -3.609375 0.578125zm16.054688 -18.203125l0 17.8125l-3.625 0l0 -21.140625l3.515625 0l0.109375 3.328125zm6.59375 -3.4375l-0.015625 3.359375q-0.453125 -0.09375 -0.859375 -0.125q-0.390625 -0.03125 -0.90625 -0.03125q-1.25 0 -2.203125 0.390625q-0.953125 0.390625 -1.625 1.09375q-0.65625 0.703125 -1.046875 1.671875q-0.375 0.96875 -0.484375 2.109375l-1.015625 0.59375q0 -1.921875 0.375 -3.59375q0.375 -1.6875 1.171875 -2.984375q0.8125 -1.296875 2.046875 -2.03125q1.25 -0.734375 2.96875 -0.734375q0.390625 0 0.890625 0.09375q0.515625 0.09375 0.703125 0.1875zm15.6484375 15.640625q0 -0.78125 -0.34375 -1.453125q-0.34375 -0.671875 -1.390625 -1.21875q-1.046875 -0.5625 -3.125 -0.984375q-1.765625 -0.359375 -3.1875 -0.859375q-1.40625 -0.515625 -2.390625 -1.234375q-0.984375 -0.734375 -1.515625 -1.703125q-0.53125 -0.984375 -0.53125 -2.296875q0 -1.25 0.546875 -2.359375q0.5625 -1.109375 1.59375 -1.96875q1.03125 -0.859375 2.46875 -1.34375q1.453125 -0.5 3.21875 -0.5q2.546875 0 4.34375 0.90625q1.796875 0.890625 2.75 2.390625q0.953125 1.5 0.953125 3.3125l-3.609375 0q0 -0.875 -0.515625 -1.703125q-0.515625 -0.84375 -1.5 -1.390625q-0.984375 -0.546875 -2.421875 -0.546875q-1.5 0 -2.4375 0.46875q-0.921875 0.453125 -1.34375 1.15625q-0.40625 0.703125 -0.40625 1.484375q0 0.59375 0.203125 1.046875q0.203125 0.453125 0.71875 0.84375q0.53125 0.375 1.484375 0.71875q0.96875 0.328125 2.453125 0.65625q2.59375 0.578125 4.265625 1.40625q1.6875 0.8125 2.5 2.015625q0.828125 1.1875 0.828125 2.890625q0 1.375 -0.578125 2.53125q-0.578125 1.15625 -1.65625 1.984375q-1.078125 0.828125 -2.578125 1.296875q-1.5 0.453125 -3.34375 0.453125q-2.796875 0 -4.734375 -1.0q-1.9375 -1.0 -2.9375 -2.578125q-0.984375 -1.578125 -0.984375 -3.34375l3.625 0q0.078125 1.484375 0.859375 2.359375q0.78125 0.875 1.90625 1.234375q1.140625 0.359375 2.265625 0.359375q1.484375 0 2.484375 -0.390625q1.0 -0.390625 1.53125 -1.078125q0.53125 -0.6875 0.53125 -1.5625z" fill-rule="nonzero"/><path fill="#ffffff" d="m410.77545 243.35716l0 -0.1875q0 -4.265625 0.953125 -7.703125q0.953125 -3.453125 2.4375 -6.046875q1.484375 -2.59375 3.125 -4.296875q1.640625 -1.71875 3.03125 -2.484375l0.765625 2.390625q-1.15625 0.875 -2.34375 2.421875q-1.171875 1.53125 -2.171875 3.78125q-0.984375 2.25 -1.59375 5.21875q-0.59375 2.96875 -0.59375 6.671875l0 0.28125q0 3.703125 0.59375 6.6875q0.609375 2.984375 1.59375 5.25q1.0 2.2656097 2.171875 3.8593597q1.1875 1.59375 2.34375 2.53125l-0.765625 2.1875q-1.390625 -0.765625 -3.03125 -2.484375q-1.640625 -1.703125 -3.125 -4.296875q-1.484375 -2.5781097 -2.4375 -6.0312347q-0.953125 -3.46875 -0.953125 -7.75zm20.253906 8.109375l5.78125 -17.875l3.6875 0l-7.59375 21.140625l-2.421875 0l0.546875 -3.265625zm-4.828125 -17.875l5.953125 17.96875l0.40625 3.171875l-2.421875 0l-7.65625 -21.140625l3.71875 0zm29.941406 17.53125l0 -10.890625q0 -1.25 -0.5 -2.171875q-0.5 -0.921875 -1.5 -1.421875q-0.984375 -0.515625 -2.453125 -0.515625q-1.375 0 -2.40625 0.46875q-1.015625 0.46875 -1.59375 1.234375q-0.578125 0.75 -0.578125 1.625l-3.609375 0q0 -1.125 0.578125 -2.234375q0.59375 -1.125 1.6875 -2.03125q1.109375 -0.90625 2.65625 -1.4375q1.5625 -0.546875 3.484375 -0.546875q2.296875 0 4.0625 0.78125q1.765625 0.78125 2.765625 2.359375q1.015625 1.578125 1.015625 3.9375l0 9.84375q0 1.046875 0.1875 2.25q0.1875 1.1875 0.5625 2.046875l0 0.3125l-3.78125 0q-0.265625 -0.625 -0.421875 -1.671875q-0.15625 -1.046875 -0.15625 -1.9375zm0.625 -9.203125l0.03125 2.53125l-3.640625 0q-1.546875 0 -2.765625 0.25q-1.203125 0.25 -2.03125 0.734375q-0.8125 0.484375 -1.25 1.21875q-0.421875 0.734375 -0.421875 1.703125q0 1.0 0.4375 1.828125q0.453125 0.8125 1.359375 1.296875q0.921875 0.46875 2.25 0.46875q1.65625 0 2.921875 -0.703125q1.265625 -0.703125 2.015625 -1.71875q0.765625 -1.015625 0.8125 -1.96875l1.546875 1.734375q-0.140625 0.828125 -0.75 1.828125q-0.59375 0.984375 -1.609375 1.90625q-1.0 0.90625 -2.375 1.5q-1.375 0.59375 -3.09375 0.59375q-2.15625 0 -3.765625 -0.84375q-1.609375 -0.84375 -2.5 -2.25q-0.890625 -1.421875 -0.890625 -3.171875q0 -1.703125 0.65625 -3.0q0.671875 -1.296875 1.921875 -2.171875q1.25 -0.875 3.0 -1.3125q1.765625 -0.453125 3.9375 -0.453125l4.203125 0zm12.6015625 -17.1875l0 30.0l-3.640625 0l0 -30.0l3.640625 0zm18.726562 25.109375l0 -16.25l3.625 0l0 21.140625l-3.453125 0l-0.171875 -4.890625zm0.6875 -4.453125l1.5 -0.03125q0 2.109375 -0.4375 3.90625q-0.4375 1.78125 -1.421875 3.09375q-0.96875 1.296875 -2.5625 2.03125q-1.578125 0.734375 -3.84375 0.734375q-1.546875 0 -2.828125 -0.453125q-1.265625 -0.453125 -2.1875 -1.390625q-0.921875 -0.9375 -1.421875 -2.4375q-0.5 -1.5 -0.5 -3.609375l0 -13.640625l3.625 0l0 13.671875q0 1.4375 0.3125 2.359375q0.328125 0.921875 0.875 1.46875q0.5625 0.53125 1.25 0.75q0.703125 0.21875 1.4375 0.21875q2.3125 0 3.65625 -0.890625q1.34375 -0.890625 1.9375 -2.40625q0.609375 -1.515625 0.609375 -3.375zm17.207031 9.734375q-2.21875 0 -4.0 -0.75q-1.78125 -0.75 -3.0625 -2.109375q-1.28125 -1.375 -1.96875 -3.25q-0.6875 -1.875 -0.6875 -4.109375l0 -0.8125q0 -2.578125 0.765625 -4.59375q0.765625 -2.03125 2.0625 -3.4375q1.3125 -1.40625 2.96875 -2.125q1.671875 -0.734375 3.453125 -0.734375q2.265625 0 3.90625 0.78125q1.65625 0.78125 2.703125 2.1875q1.0625 1.390625 1.5625 3.28125q0.515625 1.875 0.515625 4.109375l0 1.625l-15.78125 0l0 -2.953125l12.171875 0l0 -0.28125q-0.078125 -1.40625 -0.578125 -2.734375q-0.5 -1.328125 -1.578125 -2.1875q-1.078125 -0.859375 -2.921875 -0.859375q-1.234375 0 -2.28125 0.53125q-1.03125 0.515625 -1.78125 1.53125q-0.734375 1.015625 -1.140625 2.484375q-0.40625 1.453125 -0.40625 3.375l0 0.8125q0 1.5 0.421875 2.828125q0.421875 1.3125 1.21875 2.3125q0.8125 1.0 1.96875 1.5625q1.171875 0.5625 2.65625 0.5625q1.921875 0 3.25 -0.78125q1.328125 -0.78125 2.3125 -2.09375l2.1875 1.75q-0.671875 1.03125 -1.734375 1.96875q-1.046875 0.9375 -2.59375 1.53125q-1.53125 0.578125 -3.609375 0.578125zm24.742188 -6.0q0 -0.78125 -0.34375 -1.453125q-0.34375 -0.671875 -1.390625 -1.21875q-1.046875 -0.5625 -3.125 -0.984375q-1.765625 -0.359375 -3.1875 -0.859375q-1.40625 -0.515625 -2.390625 -1.234375q-0.984375 -0.734375 -1.515625 -1.703125q-0.53125 -0.984375 -0.53125 -2.296875q0 -1.25 0.546875 -2.359375q0.5625 -1.109375 1.59375 -1.96875q1.03125 -0.859375 2.46875 -1.34375q1.453125 -0.5 3.21875 -0.5q2.546875 0 4.34375 0.90625q1.796875 0.890625 2.75 2.390625q0.953125 1.5 0.953125 3.3125l-3.609375 0q0 -0.875 -0.515625 -1.703125q-0.515625 -0.84375 -1.5 -1.390625q-0.984375 -0.546875 -2.421875 -0.546875q-1.5 0 -2.4375 0.46875q-0.921875 0.453125 -1.34375 1.15625q-0.40625 0.703125 -0.40625 1.484375q0 0.59375 0.203125 1.046875q0.203125 0.453125 0.71875 0.84375q0.53125 0.375 1.484375 0.71875q0.96875 0.328125 2.453125 0.65625q2.59375 0.578125 4.265625 1.40625q1.6875 0.8125 2.5 2.015625q0.828125 1.1875 0.828125 2.890625q0 1.375 -0.578125 2.53125q-0.578125 1.15625 -1.65625 1.984375q-1.078125 0.828125 -2.578125 1.296875q-1.5 0.453125 -3.34375 0.453125q-2.796875 0 -4.734375 -1.0q-1.9375 -1.0 -2.9375 -2.578125q-0.984375 -1.578125 -0.984375 -3.34375l3.625 0q0.078125 1.484375 0.859375 2.359375q0.78125 0.875 1.90625 1.234375q1.140625 0.359375 2.265625 0.359375q1.484375 0 2.484375 -0.390625q1.0 -0.390625 1.53125 -1.078125q0.53125 -0.6875 0.53125 -1.5625zm16.660156 -5.953125l0 0.1875q0 4.28125 -0.96875 7.75q-0.953125 3.453125 -2.4375 6.0312347q-1.484375 2.59375 -3.125 4.296875q-1.640625 1.71875 -3.015625 2.484375l-0.765625 -2.1875q1.15625 -0.890625 2.328125 -2.46875q1.171875 -1.5625 2.15625 -3.8593597q1.0 -2.296875 1.609375 -5.296875q0.609375 -3.0 0.609375 -6.703125l0 -0.28125q0 -3.703125 -0.65625 -6.703125q-0.640625 -3.0 -1.671875 -5.28125q-1.015625 -2.28125 -2.1875 -3.859375q-1.15625 -1.578125 -2.1875 -2.4375l0.765625 -2.203125q1.375 0.765625 3.015625 2.484375q1.640625 1.703125 3.125 4.296875q1.484375 2.59375 2.4375 6.046875q0.96875 3.4375 0.96875 7.703125z" fill-rule="nonzero"/><path fill="#1c4587" d="m231.11023 153.88977l0 0c0 -21.786987 19.14952 -39.448822 42.771667 -39.448822l0 0c23.622131 0 42.771637 17.661835 42.771637 39.448822l0 0c0 21.786972 -19.149506 39.448807 -42.771637 39.448807l0 0c-23.622147 0 -42.771667 -17.661835 -42.771667 -39.448807z" fill-rule="evenodd"/><path fill="#1c4587" d="m307.78217 130.0l36.661407 0l0 47.779526l-36.661407 0z" fill-rule="evenodd"/></g></svg>